<?xml version="1.0" encoding="UTF-8" standalone="no"?>
<!-- Generator: Adobe Illustrator 16.0.0, SVG Export Plug-In . SVG Version: 6.00 Build 0)  -->

<svg
   version="1.1"
   id="Capa_1"
   x="0px"
   y="0px"
   width="1200px"
   height="549.525px"
   viewBox="0 0 1200 549.525"
   enable-background="new 0 0 1200 549.525"
   xml:space="preserve"
   sodipodi:docname="logo.svg"
   inkscape:version="1.1 (ce6663b3b7, 2021-05-25)"
   xmlns:inkscape="http://www.inkscape.org/namespaces/inkscape"
   xmlns:sodipodi="http://sodipodi.sourceforge.net/DTD/sodipodi-0.dtd"
   xmlns="http://www.w3.org/2000/svg"
   xmlns:svg="http://www.w3.org/2000/svg"><defs
   id="defs91" /><sodipodi:namedview
   id="namedview89"
   pagecolor="#ffffff"
   bordercolor="#666666"
   borderopacity="1.0"
   inkscape:pageshadow="2"
   inkscape:pageopacity="0.0"
   inkscape:pagecheckerboard="0"
   showgrid="false"
   inkscape:zoom="1.3447977"
   inkscape:cx="599.71845"
   inkscape:cy="274.76251"
   inkscape:window-width="1920"
   inkscape:window-height="948"
   inkscape:window-x="1366"
   inkscape:window-y="27"
   inkscape:window-maximized="1"
   inkscape:current-layer="Capa_1" />
<path
   d="M806.059,475.502v-67.794h168.353v67.794H806.059z"
   id="path74"
   style="fill:#f2f2f2" />
<path
   d="M945.864,145.121V77.302h156.014v67.819H945.864z"
   id="path76"
   style="fill:#f2f2f2" />
<path
   d="M866.792,77.302c19.203,0,59.017,0,59.017,0s0,109.084,0,136.143c132.086,37.934,188.719,32.068,188.719,94.369  c0,0,0,67.257,0,99.037c0,36.529-25.695,68.605-64.974,68.605h-55.241c0,0,0-111.372,0-146.293  c-107.709-34.375-188.421-26.749-188.421-100.59c0-39.276,0-85.967,0-85.967C805.892,104.523,837.985,77.302,866.792,77.302z"
   id="path78"
   style="fill:#f2f2f2" />
<path
   d="M548.533,165.455h119.919v310.047H548.533V165.455z"
   id="path80"
   style="fill:#f2f2f2" />
<path
   d="M441.942,144.885V77.302h335.103v67.583H441.942z"
   id="path82"
   style="fill:#f2f2f2" />
<path
   d="M223.247,77.302v61.302h67.545v102.034h-67.545v60.811h73.069v112.636h-73.069v61.417h125.568  c45.034,0,66.464-31.129,66.464-60.193c0-35.242,0.035-48.067,0.018-93.586c0-32.303-19.101-53.536-61.958-53.536  c26.432,0,48.93-22.744,48.93-54.315c0-31.568,0-54.733,0-82.633c0-26.675-25.608-53.936-59.327-53.936  C320.915,77.302,223.247,77.302,223.247,77.302z"
   id="path84"
   style="fill:#f2f2f2" />
<path
   d="M84.859,77.207h117.422v398.295H84.859V77.207z"
   id="path86"
   style="fill:#f2f2f2" />
</svg>
